<?xml version="1.0" standalone="no"?>
<!DOCTYPE svg PUBLIC "-//W3C//DTD SVG 20010904//EN"
 "http://www.w3.org/TR/2001/REC-SVG-20010904/DTD/svg10.dtd">
<svg version="1.0" xmlns="http://www.w3.org/2000/svg"
 width="512.000000pt" height="512.000000pt" viewBox="0 0 512.000000 512.000000"
 preserveAspectRatio="xMidYMid meet">
<metadata>
Created by potrace 1.14, written by Peter Selinger 2001-2017
</metadata>
<g transform="translate(0.000000,512.000000) scale(0.100000,-0.100000)"
fill="#000000" stroke="none">
<path d="M2360 4943 c-344 -60 -753 -296 -1085 -628 -187 -188 -302 -356 -474
-695 -192 -377 -361 -801 -431 -1080 -110 -439 -220 -1230 -207 -1490 10 -190
52 -307 152 -418 202 -222 595 -347 1335 -421 386 -39 573 -46 1285 -46 750 0
769 1 1005 60 391 98 687 320 844 633 120 238 165 507 125 732 -81 447 -521
858 -1064 993 -171 43 -243 51 -430 52 -153 0 -196 -4 -284 -23 -338 -76 -652
-257 -952 -549 -98 -95 -109 -103 -145 -103 -73 0 -219 -22 -327 -49 -90 -23
-107 -24 -102 -12 4 9 15 48 25 86 54 197 65 383 42 705 -15 200 -7 367 24
517 35 171 110 320 186 370 l38 26 163 -29 c135 -24 189 -29 322 -29 144 1
166 3 219 24 69 27 139 88 168 146 20 37 29 113 18 143 -3 8 15 20 54 33 76
26 138 69 164 113 52 88 66 219 34 311 -22 63 -262 486 -308 542 -20 25 -59
54 -96 72 -53 27 -71 31 -137 30 -42 0 -114 -8 -161 -16z"/>
</g>
</svg>
