<?xml version="1.0" encoding="utf-8"?>
<svg viewBox="21.9087 19.7867 461.042 411.1157" width="461.042" height="411.1157" xmlns="http://www.w3.org/2000/svg">
  <path fill="#5f3718" d="M 303.858 99.495 C 298.508 98.825 293.908 102.215 295.358 107.755 C 295.931 109.969 296.525 112.042 297.138 113.975 C 297.311 114.522 297.151 114.939 296.658 115.225 L 294.128 116.735 C 293.575 117.062 293.208 116.919 293.028 116.305 C 292.028 112.852 290.971 109.222 289.858 105.415 C 288.538 100.935 283.818 96.735 278.988 97.055 C 278.348 97.095 277.715 97.115 277.088 97.115 C 276.655 97.115 276.331 96.922 276.118 96.535 C 273.511 91.822 269.708 90.082 264.708 91.315 C 259.448 92.622 252.638 94.562 244.278 97.135 C 243.942 97.239 243.809 97.643 244.018 97.925 C 245.758 100.332 245.595 102.372 243.528 104.045 C 242.861 104.592 241.755 105.065 240.208 105.465 C 238.921 105.805 237.751 106.185 236.698 106.605 C 232.771 107.612 229.031 108.655 225.478 109.735 C 219.638 111.515 217.028 104.035 222.028 101.805 C 222.668 101.519 223.301 101.239 223.928 100.965 C 224.259 100.819 224.476 100.497 224.488 100.135 C 224.638 93.865 229.478 89.265 234.528 85.925 C 244.828 79.105 284.138 54.195 289.038 78.135 C 289.125 78.535 289.371 78.739 289.778 78.745 C 295.151 78.819 298.541 81.505 299.948 86.805 C 300.588 89.199 301.891 93.429 303.858 99.495 Z"/>
  <path fill="#fba162" d="M 303.858 99.495 C 306.245 100.295 307.695 101.482 308.208 103.055 C 310.348 109.609 311.581 114.189 311.908 116.795 C 312.275 119.715 310.648 121.959 307.028 123.525 L 302.668 123.735 C 302.341 123.749 302.231 123.909 302.338 124.215 C 303.678 128.062 304.218 132.259 303.958 136.805 L 303.648 139.315 C 303.468 139.989 303.465 140.432 303.638 140.645 C 305.125 142.445 306.645 144.405 308.198 146.525 C 309.238 147.945 309.775 149.359 309.808 150.765 C 309.988 157.832 306.538 161.592 299.458 162.045 C 296.718 162.225 295.328 159.275 293.878 157.365 C 293.467 156.824 292.695 156.725 292.168 157.145 C 290.381 158.579 288.301 159.692 285.928 160.485 C 270.408 167.195 253.908 160.675 246.968 145.265 L 239.778 120.115 L 247.518 114.765 C 248.278 114.239 248.661 113.512 248.668 112.585 C 248.668 112.119 248.538 111.759 248.278 111.505 C 247.338 110.599 246.318 110.499 245.218 111.205 L 238.638 115.425 C 237.225 112.719 236.578 109.779 236.698 106.605 C 237.751 106.185 238.921 105.805 240.208 105.465 C 241.755 105.065 242.861 104.592 243.528 104.045 C 245.595 102.372 245.758 100.332 244.018 97.925 C 243.809 97.643 243.942 97.239 244.278 97.135 C 252.638 94.562 259.448 92.622 264.708 91.315 C 269.708 90.082 273.511 91.822 276.118 96.535 C 276.331 96.922 276.655 97.115 277.088 97.115 C 277.715 97.115 278.348 97.095 278.988 97.055 C 283.818 96.735 288.538 100.935 289.858 105.415 C 290.971 109.222 292.028 112.852 293.028 116.305 C 293.208 116.919 293.575 117.062 294.128 116.735 L 296.658 115.225 C 297.151 114.939 297.311 114.522 297.138 113.975 C 296.525 112.042 295.931 109.969 295.358 107.755 C 293.908 102.215 298.508 98.825 303.858 99.495 Z M 274.352 108.577 C 274.435 107.47 273.605 106.506 272.498 106.422 L 263.164 105.721 C 262.058 105.637 261.093 106.467 261.009 107.574 L 260.984 107.913 C 260.901 109.02 261.731 109.985 262.838 110.068 L 272.171 110.77 C 273.278 110.853 274.243 110.023 274.326 108.916 L 274.352 108.577 Z M 286.713 118.485 C 287.417 118.318 287.717 117.038 287.383 115.624 C 287.049 114.21 286.207 113.199 285.503 113.366 C 284.799 113.532 284.499 114.813 284.833 116.227 C 285.167 117.64 286.009 118.651 286.713 118.485 L 286.713 118.485 Z M 276.678 122.975 C 276.678 121.02 275.093 119.435 273.138 119.435 C 271.183 119.435 269.598 121.02 269.598 122.975 C 269.598 124.93 271.183 126.515 273.138 126.515 C 275.093 126.515 276.678 124.93 276.678 122.975 Z M 295.615 124.011 C 295.434 123.299 294.709 122.869 293.998 123.051 L 293.881 123.08 C 293.17 123.262 292.74 123.986 292.921 124.698 L 294.181 129.64 C 294.362 130.351 295.086 130.781 295.798 130.6 L 295.914 130.57 C 296.626 130.389 297.056 129.665 296.875 128.953 L 295.615 124.011 Z M 252.598 129.885 C 252.598 127.941 251.022 126.365 249.078 126.365 C 247.134 126.365 245.558 127.941 245.558 129.885 C 245.558 131.829 247.134 133.405 249.078 133.405 C 251.022 133.405 252.598 131.829 252.598 129.885 Z M 293.899 136.815 C 293.692 136.139 292.976 135.758 292.3 135.965 L 292.071 136.035 C 291.395 136.242 291.014 136.957 291.221 137.633 L 292.677 142.396 C 292.884 143.072 293.599 143.452 294.275 143.246 L 294.505 143.176 C 295.181 142.969 295.561 142.253 295.355 141.577 L 293.899 136.815 Z M 258.518 155.165 L 277.148 150.385 C 277.181 150.382 277.202 150.346 277.188 150.315 L 277.178 150.285 C 276.129 146.178 271.163 143.903 266.088 145.205 L 265.718 145.305 C 260.646 146.609 257.391 150.993 258.448 155.095 L 258.458 155.125 C 258.463 155.153 258.49 155.171 258.518 155.165 Z"/>
  <rect fill="#5f3718" x="-6.69" y="-2.18" transform="matrix(0.9971850514411927, 0.07497900724411012, -0.07497900724411012, 0.9971850514411927, 267.6679077148438, 108.24534606933594)" width="13.38" height="4.36" rx="2.01"/>
  <path fill="#5f3718" d="M 239.778 120.115 C 236.178 120.255 235.778 117.085 238.638 115.425 L 245.218 111.205 C 246.318 110.499 247.338 110.599 248.278 111.505 C 248.538 111.759 248.668 112.119 248.668 112.585 C 248.661 113.512 248.278 114.239 247.518 114.765 L 239.778 120.115 Z"/>
  <path fill="#4e4e4e" d="M 91.248 162.575 C 91.108 162.395 91.041 162.172 91.048 161.905 C 91.048 161.585 91.168 161.319 91.408 161.105 C 91.801 160.772 91.961 160.329 91.888 159.775 C 91.861 159.595 91.775 159.459 91.628 159.365 C 91.535 159.299 91.428 159.259 91.308 159.245 C 91.001 159.205 90.731 159.079 90.498 158.865 C 87.758 156.312 84.995 153.955 82.208 151.795 C 81.078 150.915 80.108 149.685 79.088 148.875 C 74.528 145.229 69.938 141.329 65.318 137.175 C 64.438 136.385 63.428 135.885 62.528 135.075 C 60.248 133.009 57.871 130.972 55.398 128.965 C 54.385 128.145 53.375 127.295 52.368 126.415 C 47.975 122.562 43.288 118.672 38.308 114.745 C 37.253 113.912 35.78 113.86 34.668 114.615 C 33.168 115.625 30.148 117.055 30.278 119.125 C 30.325 119.765 30.781 120.455 31.648 121.195 C 49.915 136.809 68.221 152.422 86.568 168.035 C 85.581 168.822 85.095 169.459 85.108 169.945 L 80.638 174.625 C 80.161 175.123 79.377 175.159 78.858 174.705 C 62.778 160.639 46.528 146.605 30.108 132.605 C 27.378 130.275 27.088 127.065 27.288 123.715 C 27.601 118.575 30.401 114.962 35.688 112.875 C 36.921 112.389 38.021 112.559 38.988 113.385 C 57.355 129.025 75.461 144.395 93.308 159.495 C 93.688 159.819 93.693 160.405 93.318 160.735 L 91.248 162.575 Z"/>
  <ellipse fill="#ffffff" transform="matrix(0.23004999756813052, 0.9731790423393251, -0.9731790423393251, 0.23004999756813052, 286.10791015625006, 115.92534637451172)" rx="2.63" ry="1.31"/>
  <path fill="#666867" d="M 91.248 162.575 L 91.218 163.465 C 91.118 163.499 91.018 163.532 90.918 163.565 C 90.758 163.619 90.618 163.709 90.498 163.835 L 86.568 168.035 C 68.221 152.422 49.915 136.809 31.648 121.195 C 30.781 120.455 30.325 119.765 30.278 119.125 C 30.148 117.055 33.168 115.625 34.668 114.615 C 35.78 113.86 37.253 113.912 38.308 114.745 C 43.288 118.672 47.975 122.562 52.368 126.415 C 53.375 127.295 54.385 128.145 55.398 128.965 C 57.871 130.972 60.248 133.009 62.528 135.075 C 63.428 135.885 64.438 136.385 65.318 137.175 C 69.938 141.329 74.528 145.229 79.088 148.875 C 80.108 149.685 81.078 150.915 82.208 151.795 C 84.995 153.955 87.758 156.312 90.498 158.865 C 90.731 159.079 91.001 159.205 91.308 159.245 C 91.428 159.259 91.535 159.299 91.628 159.365 C 91.775 159.459 91.861 159.595 91.888 159.775 C 91.961 160.329 91.801 160.772 91.408 161.105 C 91.168 161.319 91.048 161.585 91.048 161.905 C 91.041 162.172 91.108 162.395 91.248 162.575 Z"/>
  <circle fill="#5f3718" cx="273.138" cy="122.975" r="3.54"/>
  <rect fill="#ffffff" x="-1.39" y="-3.88" transform="matrix(0.9690160751342775, -0.24699901044368747, 0.24699901044368747, 0.9690160751342775, 294.89791870117193, 126.82534790039062)" width="2.78" height="7.76" rx="1.33"/>
  <path fill="#5f3718" d="M 307.028 123.525 C 308.428 128.732 307.405 133.159 303.958 136.805 C 304.218 132.259 303.678 128.062 302.338 124.215 C 302.231 123.909 302.341 123.749 302.668 123.735 L 307.028 123.525 Z"/>
  <circle fill="#5f3718" cx="249.078" cy="129.885" r="3.52"/>
  <rect fill="#ffffff" x="-1.4" y="-3.77" transform="matrix(0.9563050270080568, -0.2923720180988312, 0.2923720180988312, 0.9563050270080568, 293.2879028320313, 139.60534667968753)" width="2.8" height="7.54" rx="1.28"/>
  <path fill="#0e9495" d="M 358.718 167.445 C 363.185 175.339 366.591 183.872 368.938 193.045 C 371.531 203.139 372.895 213.802 373.028 225.035 C 368.181 225.635 363.185 225.749 358.038 225.375 C 359.005 225.475 359.141 224.939 358.448 223.765 C 358.135 223.232 357.948 222.672 357.888 222.085 C 357.601 219.219 357.268 216.395 356.888 213.615 C 355.581 204.142 353.061 195.022 349.328 186.255 C 346.938 180.635 343.758 175.415 340.808 170.075 C 340.635 169.769 340.541 169.439 340.528 169.085 C 340.475 168.012 339.691 167.459 338.178 167.425 C 342.085 162.605 342.621 157.652 339.788 152.565 C 333.508 141.285 316.238 142.675 312.938 155.545 C 311.971 159.325 312.348 162.869 314.068 166.175 C 315.008 167.985 316.408 169.335 317.808 170.735 C 318.282 171.204 318.489 171.877 318.358 172.525 C 316.631 181.445 313.168 189.745 307.968 197.425 C 307.941 197.472 307.905 197.505 307.858 197.525 C 307.798 197.559 307.718 197.595 307.618 197.635 C 303.718 191.822 299.301 186.489 294.368 181.635 C 292.798 179.795 289.138 177.225 288.468 175.055 C 287.721 172.655 286.941 169.219 286.128 164.745 C 285.768 163.792 285.701 162.372 285.928 160.485 C 288.301 159.692 290.381 158.579 292.168 157.145 C 292.695 156.725 293.467 156.824 293.878 157.365 C 295.328 159.275 296.718 162.225 299.458 162.045 C 306.538 161.592 309.988 157.832 309.808 150.765 C 309.775 149.359 309.238 147.945 308.198 146.525 C 306.645 144.405 305.125 142.445 303.638 140.645 C 303.465 140.432 303.468 139.989 303.648 139.315 C 323.068 137.662 339.151 143.935 351.898 158.135 C 353.345 159.749 355.618 162.852 358.718 167.445 Z M 367.358 208.035 L 367.878 208.165 C 368.158 208.239 368.285 208.132 368.258 207.845 C 366.898 191.572 361.605 177.069 352.378 164.335 C 351.505 163.122 350.571 162.089 349.578 161.235 C 349.401 161.064 349.105 161.149 349.045 161.387 C 349.022 161.48 349.041 161.578 349.098 161.655 C 354.265 169.222 358.018 175.692 360.358 181.065 C 363.625 188.585 365.838 197.435 366.998 207.615 C 367.023 207.82 367.166 207.986 367.358 208.035 Z"/>
  <path fill="#fba162" d="M 338.178 167.425 C 334.985 180.165 330.048 191.839 323.368 202.445 C 321.421 205.525 318.788 209.062 315.468 213.055 C 315.368 213.022 315.181 213.162 314.908 213.475 C 305.608 224.235 294.801 233.302 282.488 240.675 L 276.418 228.875 C 276.518 228.875 276.605 228.875 276.678 228.875 C 276.851 228.869 277.008 228.809 277.148 228.695 C 288.808 219.355 298.868 210.415 307.578 198.215 C 307.665 198.102 307.708 197.972 307.708 197.825 C 307.708 197.599 307.678 197.535 307.618 197.635 C 307.718 197.595 307.798 197.559 307.858 197.525 C 307.905 197.505 307.941 197.472 307.968 197.425 C 313.168 189.745 316.631 181.445 318.358 172.525 C 318.489 171.877 318.282 171.204 317.808 170.735 C 316.408 169.335 315.008 167.985 314.068 166.175 C 312.348 162.869 311.971 159.325 312.938 155.545 C 316.238 142.675 333.508 141.285 339.788 152.565 C 342.621 157.652 342.085 162.605 338.178 167.425 Z"/>
  <path fill="#c45428" d="M 258.518 155.165 C 258.49 155.171 258.463 155.153 258.458 155.125 L 258.448 155.095 C 257.391 150.993 260.646 146.609 265.718 145.305 L 266.088 145.205 C 271.163 143.903 276.129 146.178 277.178 150.285 L 277.188 150.315 C 277.202 150.346 277.181 150.382 277.148 150.385 L 258.518 155.165 Z"/>
  <path fill="#fba162" d="M 286.128 164.745 C 286.941 169.219 287.721 172.655 288.468 175.055 C 289.138 177.225 292.798 179.795 294.368 181.635 C 286.675 185.009 278.878 186.832 270.978 187.105 C 256.651 187.592 242.311 185.802 227.958 181.735 C 228.108 179.775 228.738 177.085 226.798 175.715 C 223.171 173.142 219.595 170.569 216.068 167.995 C 215.672 167.71 215.116 167.868 214.938 168.315 L 211.868 176.095 C 208.168 180.935 203.331 183.595 197.358 184.075 C 192.468 184.475 190.568 179.715 189.338 175.955 C 189.251 175.682 188.951 175.492 188.438 175.385 C 188.665 175.459 188.838 175.415 188.958 175.255 C 189.038 175.155 189.065 175.005 189.038 174.805 C 188.658 171.965 188.658 169.119 189.038 166.265 L 190.518 162.575 L 193.018 159.935 C 196.565 158.129 199.965 157.522 203.218 158.115 C 207.965 158.982 211.755 160.832 214.588 163.665 C 215.608 164.685 216.748 165.415 218.008 165.855 C 231.181 170.502 243.825 173.002 255.938 173.355 C 262.738 173.549 268.751 172.842 273.978 171.235 C 277.525 170.149 281.575 167.985 286.128 164.745 Z"/>
  <path fill="#07aba2" d="M 366.998 207.615 C 365.838 197.435 363.625 188.585 360.358 181.065 C 358.018 175.692 354.265 169.222 349.098 161.655 C 348.952 161.457 349.075 161.175 349.319 161.147 C 349.414 161.137 349.509 161.169 349.578 161.235 C 350.571 162.089 351.505 163.122 352.378 164.335 C 361.605 177.069 366.898 191.572 368.258 207.845 C 368.285 208.132 368.158 208.239 367.878 208.165 L 367.358 208.035 C 367.166 207.986 367.023 207.82 366.998 207.615 L 366.998 207.615 Z"/>
  <path fill="#fba162" d="M 160.148 163.215 C 161.978 163.055 162.588 164.775 163.538 166.385 L 122.988 166.385 L 123.588 165.855 C 123.792 165.684 123.959 165.469 124.078 165.225 C 124.665 163.999 125.465 163.362 126.478 163.315 C 131.005 163.135 142.228 163.102 160.148 163.215 Z"/>
  <path fill="#333333" d="M 91.218 163.465 C 92.665 164.632 94.141 165.745 95.648 166.805 C 97.341 167.999 99.011 168.702 100.658 168.915 C 102.778 169.189 104.991 169.129 107.298 168.735 C 107.485 168.822 107.591 168.935 107.618 169.075 C 107.638 169.155 107.625 169.232 107.578 169.305 C 106.098 171.632 105.465 173.949 105.678 176.255 C 105.918 178.865 105.148 180.805 104.618 183.245 C 104.351 184.452 104.835 185.082 106.068 185.135 L 112.768 185.415 C 112.952 185.424 113.058 185.63 112.958 185.785 C 112.958 185.785 112.958 185.785 112.958 185.785 C 112.905 185.859 112.828 185.942 112.728 186.035 L 103.258 186.185 C 103.05 186.192 102.894 185.996 102.948 185.795 L 104.868 178.415 C 104.941 178.146 104.737 177.882 104.458 177.885 L 97.998 177.805 C 96.664 177.793 95.368 177.366 94.288 176.585 L 85.108 169.945 C 85.095 169.459 85.581 168.822 86.568 168.035 L 90.498 163.835 C 90.618 163.709 90.758 163.619 90.918 163.565 C 91.018 163.532 91.118 163.499 91.218 163.465 Z"/>
  <path fill="#4e4e4e" d="M 122.988 166.385 L 163.538 166.385 L 189.038 166.265 C 188.658 169.119 188.658 171.965 189.038 174.805 C 189.065 175.005 189.038 175.155 188.958 175.255 C 188.838 175.415 188.665 175.459 188.438 175.385 L 171.948 175.325 C 171.518 175.32 171.142 175.616 171.048 176.035 L 168.868 185.735 C 168.795 186.049 168.598 186.205 168.278 186.205 L 160.868 186.195 C 160.528 186.189 160.305 186.352 160.198 186.685 L 155.598 201.465 L 127.108 201.515 L 122.698 201.305 C 121.805 201.265 121.565 200.849 121.978 200.055 L 123.038 198.015 C 123.151 197.802 123.165 197.579 123.078 197.345 C 123.045 197.252 122.998 197.179 122.938 197.125 C 123.045 197.092 123.145 197.055 123.238 197.015 C 123.427 196.915 123.557 196.729 123.588 196.515 C 124.021 193.269 124.845 190.225 126.058 187.385 C 126.284 186.845 125.894 186.246 125.308 186.235 L 114.078 186.085 C 113.665 186.152 113.215 186.135 112.728 186.035 C 112.828 185.942 112.905 185.859 112.958 185.785 C 113.058 185.63 112.953 185.425 112.768 185.415 C 112.768 185.415 112.768 185.415 112.768 185.415 L 106.068 185.135 C 104.835 185.082 104.351 184.452 104.618 183.245 C 105.148 180.805 105.918 178.865 105.678 176.255 C 105.465 173.949 106.098 171.632 107.578 169.305 C 107.625 169.232 107.638 169.155 107.618 169.075 C 107.591 168.935 107.485 168.822 107.298 168.735 C 107.418 168.275 107.455 167.859 107.408 167.485 C 107.342 166.961 107.745 166.496 108.268 166.495 L 122.988 166.385 Z M 117.848 175.565 C 117.848 174.063 116.63 172.845 115.128 172.845 C 113.626 172.845 112.408 174.063 112.408 175.565 C 112.408 177.068 113.626 178.285 115.128 178.285 C 116.63 178.285 117.848 177.068 117.848 175.565 Z M 163.758 175.555 C 163.758 174.014 162.509 172.765 160.968 172.765 C 159.427 172.765 158.178 174.014 158.178 175.555 C 158.178 177.096 159.427 178.345 160.968 178.345 C 162.509 178.345 163.758 177.096 163.758 175.555 Z"/>
  <path fill="#07aba2" d="M 338.178 167.425 C 339.691 167.459 340.475 168.012 340.528 169.085 C 340.541 169.439 340.635 169.769 340.808 170.075 C 343.758 175.415 346.938 180.635 349.328 186.255 C 353.061 195.022 355.581 204.142 356.888 213.615 C 357.268 216.395 357.601 219.219 357.888 222.085 C 357.948 222.672 358.135 223.232 358.448 223.765 C 359.141 224.939 359.005 225.475 358.038 225.375 L 350.298 225.535 C 349.305 225.069 348.525 224.965 347.958 225.225 L 344.838 225.585 C 344.518 224.992 343.818 224.955 342.738 225.475 C 334.691 225.475 326.688 225.509 318.728 225.575 C 318.415 225.582 318.075 225.462 317.708 225.215 L 315.468 213.055 C 318.788 209.062 321.421 205.525 323.368 202.445 C 330.048 191.839 334.985 180.165 338.178 167.425 Z"/>
  <path fill="#333333" d="M 227.958 181.735 C 227.005 183.309 225.771 184.149 224.258 184.255 C 223.211 184.335 222.005 183.819 220.638 182.705 C 217.805 180.399 214.881 178.195 211.868 176.095 L 214.938 168.315 C 215.116 167.868 215.672 167.71 216.068 167.995 C 219.595 170.569 223.171 173.142 226.798 175.715 C 228.738 177.085 228.108 179.775 227.958 181.735 Z"/>
  <circle fill="#9a9a98" cx="115.128" cy="175.565" r="2.72"/>
  <circle fill="#9a9a98" cx="160.968" cy="175.555" r="2.79"/>
  <path fill="#333333" d="M 122.938 197.125 L 116.388 197.245 L 111.358 197.195 C 110.899 197.193 110.576 196.739 110.718 196.295 L 114.078 186.085 L 125.308 186.235 C 125.894 186.246 126.284 186.845 126.058 187.385 C 124.845 190.225 124.021 193.269 123.588 196.515 C 123.557 196.729 123.427 196.915 123.238 197.015 C 123.145 197.055 123.045 197.092 122.938 197.125 Z"/>
  <path fill="#818180" d="M 122.938 197.125 C 122.998 197.179 123.045 197.252 123.078 197.345 C 123.165 197.579 123.151 197.802 123.038 198.015 L 121.978 200.055 C 121.565 200.849 121.805 201.265 122.698 201.305 L 127.108 201.515 L 92.268 320.665 C 88.141 320.479 84.285 319.862 80.698 318.815 L 116.388 197.245 L 122.938 197.125 Z"/>
  <path fill="#9a9a98" d="M 155.598 201.465 C 155.065 201.632 154.645 201.782 154.338 201.915 C 153.971 202.082 153.728 202.369 153.608 202.775 C 148.298 220.425 143.338 238.875 138.118 256.875 C 131.491 279.722 124.978 302.439 118.578 325.025 C 118.125 326.625 117.625 328.249 117.078 329.895 L 111.338 350.555 L 108.648 359.915 L 106.858 366.075 C 106.707 366.58 106.987 367.113 107.488 367.275 C 109.861 368.062 112.161 368.989 114.388 370.055 C 120.688 373.062 127.041 376.872 133.448 381.485 C 133.669 381.646 133.734 381.944 133.598 382.175 L 133.448 382.415 C 133.101 383.009 132.638 383.122 132.058 382.755 C 129.238 380.975 126.368 379.179 123.448 377.365 C 118.601 374.345 113.141 371.459 107.068 368.705 C 106.441 368.419 106.035 368.605 105.848 369.265 L 93.958 410.295 L 66.418 410.285 C 66.931 407.372 67.598 404.539 68.418 401.785 C 72.151 389.252 75.878 376.715 79.598 364.175 C 79.791 363.522 79.888 362.622 79.888 361.475 C 79.908 361.082 80.061 360.799 80.348 360.625 L 82.658 353.135 L 88.658 332.805 L 92.268 320.665 L 127.108 201.515 L 155.598 201.465 Z"/>
  <path fill="#4e4e4e" d="M 373.028 225.035 C 373.728 227.422 373.741 230.295 373.068 233.655 C 373.075 233.515 373.068 233.395 373.048 233.295 C 372.987 232.913 372.533 232.748 372.231 232.999 C 372.145 233.07 372.084 233.167 372.058 233.275 C 371.398 236.142 370.645 238.925 369.798 241.625 C 369.465 242.699 369.051 243.789 368.558 244.895 C 368.098 245.915 367.548 246.859 366.908 247.725 C 365.368 249.812 363.868 251.959 362.408 254.165 C 361.028 256.239 359.148 257.792 356.768 258.825 C 346.955 263.059 336.351 268.129 324.958 274.035 C 322.918 275.085 320.838 274.495 318.888 275.425 C 316.615 276.505 314.275 277.519 311.868 278.465 C 309.778 279.285 308.538 281.205 306.098 280.865 C 305.545 280.792 305.158 280.495 304.938 279.975 C 304.811 279.675 304.605 279.449 304.318 279.295 C 303.451 278.829 303.058 278.979 303.138 279.745 L 301.788 278.245 L 297.518 272.525 C 300.525 271.072 304.525 268.759 309.518 265.585 C 318.318 259.992 325.705 254.802 331.678 250.015 C 340.058 243.302 346.265 235.142 350.298 225.535 L 358.038 225.375 C 363.185 225.749 368.181 225.635 373.028 225.035 Z"/>
  <path fill="#cfcfcf" d="M 344.838 225.585 C 343.251 229.132 341.418 232.155 339.338 234.655 C 336.585 237.955 333.148 241.345 329.028 244.825 C 318.361 253.825 306.845 261.669 294.478 268.355 L 293.098 266.845 C 308.808 257.865 320.378 250.065 332.128 239.455 C 336.548 235.455 340.085 230.795 342.738 225.475 C 343.818 224.955 344.518 224.992 344.838 225.585 Z"/>
  <path fill="#4e4e4e" d="M 347.958 225.225 C 346.108 231.895 341.868 237.115 336.988 241.805 C 330.308 248.239 323.111 254.029 315.398 259.175 C 309.218 263.295 302.891 267.252 296.418 271.045 C 295.065 270.365 294.418 269.469 294.478 268.355 C 306.845 261.669 318.361 253.825 329.028 244.825 C 333.148 241.345 336.585 237.955 339.338 234.655 C 341.418 232.155 343.251 229.132 344.838 225.585 L 347.958 225.225 Z"/>
  <path fill="#cfcfcf" d="M 350.298 225.535 C 346.265 235.142 340.058 243.302 331.678 250.015 C 325.705 254.802 318.318 259.992 309.518 265.585 C 304.525 268.759 300.525 271.072 297.518 272.525 L 296.418 271.045 C 302.891 267.252 309.218 263.295 315.398 259.175 C 323.111 254.029 330.308 248.239 336.988 241.805 C 341.868 237.115 346.108 231.895 347.958 225.225 C 348.525 224.965 349.305 225.069 350.298 225.535 Z"/>
  <path fill="#4e4e4e" d="M 317.708 225.215 C 318.075 225.462 318.415 225.582 318.728 225.575 C 326.688 225.509 334.691 225.475 342.738 225.475 C 340.085 230.795 336.548 235.455 332.128 239.455 C 320.378 250.065 308.808 257.865 293.098 266.845 L 288.578 261.795 C 287.731 261.022 287.171 260.209 286.898 259.355 C 286.798 259.035 286.861 258.752 287.088 258.505 C 296.881 247.739 306.621 236.949 316.308 226.135 C 316.608 225.802 317.075 225.495 317.708 225.215 Z"/>
  <path fill="#333333" d="M 276.418 228.875 L 282.488 240.675 L 283.348 242.275 C 283.515 242.582 283.451 242.829 283.158 243.015 L 276.288 247.425 L 268.458 233.445 C 268.398 233.345 268.375 233.239 268.388 233.125 C 268.401 233.039 268.415 232.952 268.428 232.865 C 270.668 231.405 272.928 229.969 275.208 228.555 C 275.448 228.409 275.661 228.352 275.848 228.385 C 276.135 228.425 276.325 228.589 276.418 228.875 Z M 279.238 238.615 L 275.858 232.825 C 275.789 232.712 275.641 232.676 275.528 232.745 L 273.158 234.125 C 272.267 234.645 271.761 235.442 272.028 235.905 L 274.668 240.435 C 274.939 240.899 275.885 240.849 276.778 240.325 L 279.148 238.935 C 279.259 238.87 279.299 238.729 279.238 238.615 Z"/>
  <path fill="#fba162" d="M 268.428 232.865 C 268.415 232.952 268.401 233.039 268.388 233.125 C 268.375 233.239 268.398 233.345 268.458 233.445 L 276.288 247.425 C 271.581 253.812 265.298 256.302 257.438 254.895 C 252.651 254.042 249.861 250.735 249.068 244.975 C 248.388 240.075 249.518 235.499 252.458 231.245 C 255.378 227.015 264.308 230.425 267.468 232.795 C 267.701 232.969 268.021 232.992 268.428 232.865 Z"/>
  <path fill="#666867" d="M 279.238 238.615 C 279.299 238.729 279.259 238.87 279.148 238.935 L 276.778 240.325 C 275.885 240.849 274.939 240.899 274.668 240.435 L 272.028 235.905 C 271.761 235.442 272.267 234.645 273.158 234.125 L 275.528 232.745 C 275.641 232.676 275.789 232.712 275.858 232.825 L 279.238 238.615 Z"/>
  <path fill="#333333" d="M 373.068 233.655 C 372.361 239.022 370.558 243.989 367.658 248.555 C 365.545 251.889 364.165 254.222 363.518 255.555 C 358.878 265.135 354.235 274.715 349.588 284.295 C 349.435 284.609 349.195 284.715 348.868 284.615 L 344.618 283.325 L 323.068 275.925 C 317.628 277.192 312.131 279.525 306.578 282.925 C 306.205 283.148 305.725 283.058 305.458 282.715 L 303.138 279.745 C 303.058 278.979 303.451 278.829 304.318 279.295 C 304.605 279.449 304.811 279.675 304.938 279.975 C 305.158 280.495 305.545 280.792 306.098 280.865 C 308.538 281.205 309.778 279.285 311.868 278.465 C 314.275 277.519 316.615 276.505 318.888 275.425 C 320.838 274.495 322.918 275.085 324.958 274.035 C 336.351 268.129 346.955 263.059 356.768 258.825 C 359.148 257.792 361.028 256.239 362.408 254.165 C 363.868 251.959 365.368 249.812 366.908 247.725 C 367.548 246.859 368.098 245.915 368.558 244.895 C 369.051 243.789 369.465 242.699 369.798 241.625 C 370.645 238.925 371.398 236.142 372.058 233.275 C 372.149 232.896 372.616 232.75 372.897 233.012 C 372.978 233.087 373.03 233.186 373.048 233.295 C 373.068 233.395 373.075 233.515 373.068 233.655 Z"/>
  <path fill="#fba162" d="M 288.578 261.795 L 293.098 266.845 L 294.478 268.355 C 294.418 269.469 295.065 270.365 296.418 271.045 L 297.518 272.525 L 301.788 278.245 C 299.708 280.092 298.135 282.185 297.068 284.525 C 296.308 286.219 295.868 288.439 295.748 291.185 C 295.621 293.985 295.688 296.275 295.948 298.055 C 297.648 309.749 300.435 324.759 304.308 343.085 L 306.098 350.835 C 306.108 354.625 303.738 357.945 299.698 357.745 C 297.918 357.659 296.461 357.059 295.328 355.945 C 293.108 353.765 290.785 351.729 288.358 349.835 C 288.485 347.702 288.161 345.422 287.388 342.995 C 284.655 331.049 281.985 319.055 279.378 307.015 C 278.498 302.965 277.028 298.605 276.268 294.915 C 275.101 289.209 275.581 283.422 277.708 277.555 C 279.961 271.362 283.585 266.109 288.578 261.795 Z"/>
  <path fill="#fba162" d="M 323.068 275.925 L 344.618 283.325 L 372.168 343.415 C 372.261 344.422 371.788 345.502 370.748 346.655 C 369.961 347.515 368.978 347.982 367.798 348.055 C 365.438 348.189 363.495 347.585 361.968 346.245 C 358.221 342.965 355.521 340.865 353.868 339.945 C 340.881 316.972 331.765 300.589 326.518 290.795 C 324.558 287.142 323.408 282.185 323.068 275.925 Z"/>
  <path fill="#666867" d="M 92.268 320.665 L 88.658 332.805 C 86.351 331.772 83.958 330.835 81.478 329.995 C 63.488 323.925 46.208 327.075 30.608 337.575 C 30.281 337.795 30.011 337.742 29.798 337.415 C 29.731 337.309 29.731 337.229 29.798 337.175 C 30.225 336.842 30.178 336.592 29.658 336.425 C 29.458 336.359 29.278 336.262 29.118 336.135 C 30.891 333.395 33.375 331.065 36.568 329.145 C 49.458 321.405 65.088 318.415 79.988 319.095 C 80.135 319.102 80.371 319.009 80.698 318.815 C 84.285 319.862 88.141 320.479 92.268 320.665 Z"/>
  <path fill="#333333" d="M 88.658 332.805 L 82.658 353.135 C 70.678 351.989 58.705 353.545 46.738 357.805 C 39.878 360.252 34.508 363.469 30.628 367.455 C 29.468 368.645 29.038 370.185 28.508 371.705 C 28.409 371.972 28.063 372.038 27.886 371.824 C 27.876 371.812 27.866 371.799 27.858 371.785 C 27.711 371.565 27.515 371.382 27.268 371.235 C 27.281 361.695 27.288 352.132 27.288 342.545 C 27.288 340.652 27.898 338.515 29.118 336.135 C 29.278 336.262 29.458 336.359 29.658 336.425 C 30.178 336.592 30.225 336.842 29.798 337.175 C 29.731 337.229 29.731 337.309 29.798 337.415 C 30.011 337.742 30.281 337.795 30.608 337.575 C 46.208 327.075 63.488 323.925 81.478 329.995 C 83.958 330.835 86.351 331.772 88.658 332.805 Z"/>
  <path fill="#666867" d="M 117.078 329.895 C 123.338 333.242 129.675 337.422 136.088 342.435 C 136.781 342.982 137.538 343.229 138.358 343.175 C 137.638 345.515 137.415 348.059 137.688 350.805 L 111.338 350.555 L 117.078 329.895 Z"/>
  <path fill="#0e9495" d="M 353.868 339.945 C 355.521 340.865 358.221 342.965 361.968 346.245 C 363.495 347.585 365.438 348.189 367.798 348.055 C 368.978 347.982 369.961 347.515 370.748 346.655 C 371.788 345.502 372.261 344.422 372.168 343.415 C 374.558 340.275 376.348 340.225 378.508 343.055 L 380.558 351.075 C 380.988 352.945 381.988 356.655 380.548 358.195 L 365.948 359.245 C 365.868 359.205 365.791 359.169 365.718 359.135 C 365.571 359.075 365.451 358.985 365.358 358.865 C 365.298 358.785 365.345 358.725 365.498 358.685 C 365.625 358.645 365.651 358.572 365.578 358.465 C 362.518 353.645 358.711 349.515 354.158 346.075 C 353.851 345.842 353.505 345.715 353.118 345.695 C 352.651 345.662 352.268 345.439 351.968 345.025 C 351.975 344.885 351.955 344.765 351.908 344.665 C 351.788 344.365 351.575 344.262 351.268 344.355 C 350.768 344.515 350.295 344.759 349.848 345.085 C 349.675 344.645 349.455 344.312 349.188 344.085 L 349.348 343.395 C 350.801 342.755 352.308 341.605 353.868 339.945 Z"/>
  <path fill="#9a9a98" d="M 287.388 342.995 C 288.161 345.422 288.485 347.702 288.358 349.835 C 287.131 350.002 286.001 350.429 284.968 351.115 L 137.688 350.805 C 137.415 348.059 137.638 345.515 138.358 343.175 L 287.388 342.995 Z"/>
  <path fill="#9a9a98" d="M 304.308 343.085 L 348.798 343.175 C 348.918 343.175 349.028 343.205 349.128 343.265 C 349.201 343.312 349.275 343.355 349.348 343.395 L 349.188 344.085 C 348.368 343.979 347.668 344.019 347.088 344.205 C 346.755 344.305 346.581 344.529 346.568 344.875 L 346.508 346.585 C 346.075 346.345 345.731 346.255 345.478 346.315 C 344.971 345.782 344.305 345.765 343.478 346.265 C 342.743 346.714 342.573 347.708 343.118 348.375 C 343.398 348.715 343.485 349.202 343.378 349.835 C 342.971 349.775 342.595 349.835 342.248 350.015 C 341.875 349.609 341.668 349.052 341.628 348.345 C 341.608 347.925 341.388 347.739 340.968 347.785 L 339.358 347.965 C 339.055 347.994 338.815 348.238 338.788 348.545 C 338.708 349.459 338.938 350.252 339.478 350.925 C 339.761 351.277 339.586 351.804 339.148 351.915 C 338.868 351.989 338.591 351.985 338.318 351.905 C 338.071 351.825 337.931 351.659 337.898 351.405 L 337.708 349.835 C 337.676 349.531 337.402 349.31 337.098 349.345 C 335.271 349.525 334.555 350.165 334.948 351.265 L 310.928 351.125 L 306.098 350.835 L 304.308 343.085 Z"/>
  <path fill="#9a9a98" d="M 378.508 343.055 L 422.278 343.165 C 427.258 343.092 432.655 343.039 438.468 343.005 C 441.575 342.992 444.168 343.469 446.248 344.435 C 451.428 346.855 453.678 352.445 452.638 358.005 C 452.205 360.299 450.988 362.135 448.988 363.515 C 448.701 355.622 444.781 351.465 437.228 351.045 C 436.301 350.992 434.125 351.009 430.698 351.095 L 380.558 351.075 L 378.508 343.055 Z"/>
  <path fill="#fba162" d="M 349.188 344.085 C 349.455 344.312 349.675 344.645 349.848 345.085 C 349.581 345.612 349.701 346.169 350.208 346.755 C 350.288 347.615 350.138 348.222 349.758 348.575 C 349.445 348.869 349.065 348.969 348.618 348.875 C 347.825 348.709 347.131 348.872 346.538 349.365 C 346.411 349.472 346.361 349.605 346.388 349.765 C 346.638 351.255 344.788 352.065 343.688 351.255 L 343.378 349.835 C 343.485 349.202 343.398 348.715 343.118 348.375 C 342.573 347.708 342.743 346.714 343.478 346.265 C 344.305 345.765 344.971 345.782 345.478 346.315 C 345.418 347.029 345.568 347.545 345.928 347.865 C 346.239 348.141 346.732 347.977 346.815 347.57 C 346.816 347.565 346.817 347.56 346.818 347.555 C 346.885 347.155 346.781 346.832 346.508 346.585 L 346.568 344.875 C 346.581 344.529 346.755 344.305 347.088 344.205 C 347.668 344.019 348.368 343.979 349.188 344.085 Z"/>
  <path fill="#f7f5de" d="M 351.968 345.025 C 351.495 345.752 350.908 346.329 350.208 346.755 C 349.701 346.169 349.581 345.612 349.848 345.085 C 350.295 344.759 350.768 344.515 351.268 344.355 C 351.575 344.262 351.788 344.365 351.908 344.665 C 351.955 344.765 351.975 344.885 351.968 345.025 Z"/>
  <path fill="#07aba2" d="M 351.968 345.025 C 352.268 345.439 352.651 345.662 353.118 345.695 C 353.505 345.715 353.851 345.842 354.158 346.075 C 358.711 349.515 362.518 353.645 365.578 358.465 C 365.651 358.572 365.625 358.645 365.498 358.685 C 365.345 358.725 365.298 358.785 365.358 358.865 C 365.451 358.985 365.571 359.075 365.718 359.135 C 365.791 359.169 365.868 359.205 365.948 359.245 C 356.808 360.072 347.651 360.539 338.478 360.645 C 331.185 360.732 324.335 359.225 317.928 356.125 C 317.901 355.625 317.885 355.369 317.878 355.355 C 317.469 354.884 317.732 354.146 318.351 354.026 C 318.377 354.022 318.402 354.018 318.428 354.015 C 322.908 353.642 327.085 353.499 330.958 353.585 L 325.718 353.805 C 325.465 353.812 325.365 353.939 325.418 354.185 L 325.568 354.975 C 325.621 355.255 325.791 355.402 326.078 355.415 C 329.828 355.525 333.168 354.085 336.948 354.285 C 337.348 354.305 337.701 354.189 338.008 353.935 C 338.868 353.222 339.818 352.922 340.858 353.035 C 341.298 353.089 341.698 352.992 342.058 352.745 C 342.545 352.412 342.695 351.942 342.508 351.335 C 342.761 351.129 343.155 351.102 343.688 351.255 C 344.788 352.065 346.638 351.255 346.388 349.765 C 346.361 349.605 346.411 349.472 346.538 349.365 C 347.131 348.872 347.825 348.709 348.618 348.875 C 349.065 348.969 349.445 348.869 349.758 348.575 C 350.138 348.222 350.288 347.615 350.208 346.755 C 350.908 346.329 351.495 345.752 351.968 345.025 Z"/>
  <path fill="#07aba2" d="M 345.478 346.315 C 345.731 346.255 346.075 346.345 346.508 346.585 C 346.781 346.832 346.885 347.155 346.818 347.555 C 346.745 347.965 346.257 348.142 345.939 347.875 C 345.935 347.872 345.931 347.869 345.928 347.865 C 345.568 347.545 345.418 347.029 345.478 346.315 Z"/>
  <path fill="#fba162" d="M 342.248 350.015 L 342.508 351.335 C 342.695 351.942 342.545 352.412 342.058 352.745 C 341.698 352.992 341.298 353.089 340.858 353.035 C 339.818 352.922 338.868 353.222 338.008 353.935 C 337.701 354.189 337.348 354.305 336.948 354.285 C 333.168 354.085 329.828 355.525 326.078 355.415 C 325.791 355.402 325.621 355.255 325.568 354.975 L 325.418 354.185 C 325.365 353.939 325.465 353.812 325.718 353.805 L 330.958 353.585 C 333.918 353.072 335.248 352.299 334.948 351.265 C 334.555 350.165 335.271 349.525 337.098 349.345 C 337.402 349.31 337.676 349.531 337.708 349.835 L 337.898 351.405 C 337.931 351.659 338.071 351.825 338.318 351.905 C 338.591 351.985 338.868 351.989 339.148 351.915 C 339.586 351.804 339.761 351.277 339.478 350.925 C 338.938 350.252 338.708 349.459 338.788 348.545 C 338.815 348.238 339.055 347.994 339.358 347.965 L 340.968 347.785 C 341.388 347.739 341.608 347.925 341.628 348.345 C 341.668 349.052 341.875 349.609 342.248 350.015 Z"/>
  <path fill="#0e9495" d="M 288.358 349.835 C 290.785 351.729 293.108 353.765 295.328 355.945 C 296.461 357.059 297.918 357.659 299.698 357.745 C 303.738 357.945 306.108 354.625 306.098 350.835 L 310.928 351.125 C 312.675 354.459 313.688 358.035 313.968 361.855 C 314.755 364.075 314.885 366.102 314.358 367.935 L 298.618 368.945 C 296.031 363.865 292.508 359.465 288.048 355.745 C 287.799 355.543 287.501 355.415 287.188 355.375 C 286.668 355.309 286.185 355.139 285.738 354.865 C 285.445 354.105 284.901 353.809 284.108 353.975 C 283.835 354.035 283.618 354.175 283.458 354.395 C 283.318 354.595 283.198 354.839 283.098 355.125 C 282.891 354.432 282.591 353.919 282.198 353.585 C 283.558 353.099 284.481 352.275 284.968 351.115 C 286.001 350.429 287.131 350.002 288.358 349.835 Z"/>
  <path fill="#cfcfcf" d="M 343.378 349.835 L 343.688 351.255 C 343.155 351.102 342.761 351.129 342.508 351.335 L 342.248 350.015 C 342.595 349.835 342.971 349.775 343.378 349.835 Z"/>
  <path fill="#4e4e4e" d="M 137.688 350.805 L 284.968 351.115 C 284.481 352.275 283.558 353.099 282.198 353.585 C 281.418 353.525 280.758 353.669 280.218 354.015 C 279.951 354.188 279.796 354.488 279.808 354.805 C 279.835 355.472 279.825 356.155 279.778 356.855 C 279.698 358.002 279.381 358.072 278.828 357.065 C 278.428 356.352 277.711 356.042 276.678 356.135 C 276.151 356.182 275.928 356.465 276.008 356.985 L 276.268 358.765 C 276.321 359.14 275.943 359.427 275.586 359.283 C 275.566 359.275 275.547 359.266 275.528 359.255 C 274.941 358.915 274.555 358.442 274.368 357.835 C 274.205 357.281 273.497 357.118 273.094 357.541 C 273.078 357.559 273.063 357.577 273.048 357.595 C 272.575 358.195 272.431 358.855 272.618 359.575 C 272.718 360.062 272.295 360.505 271.348 360.905 C 270.828 359.752 270.231 359.105 269.558 358.965 C 269.418 358.379 269.141 358.085 268.728 358.085 C 236.148 358.092 205.141 358.129 175.708 358.195 C 174.901 358.195 174.375 358.579 174.128 359.345 C 173.901 360.039 174.188 360.715 174.988 361.375 C 175.267 361.609 175.616 361.739 175.978 361.745 C 201.825 362.005 226.575 362.095 250.228 362.015 C 250.715 362.015 251.558 362.372 252.758 363.085 C 251.858 363.552 251.161 364.332 250.668 365.425 C 250.015 365.605 250.051 366.079 250.778 366.845 C 250.831 368.225 251.738 369.302 253.498 370.075 C 253.838 370.229 253.888 370.449 253.648 370.735 C 253.401 371.035 253.071 371.182 252.658 371.175 C 248.718 371.135 245.161 371.175 241.988 371.295 C 241.192 371.323 240.512 371.88 240.328 372.655 C 240.308 372.735 240.305 372.819 240.318 372.905 C 240.488 373.924 241.338 374.69 242.368 374.755 C 248.041 375.135 253.818 375.179 259.698 374.885 C 261.518 374.792 263.361 374.832 265.228 375.005 C 267.228 375.185 269.235 375.369 271.248 375.555 C 273.835 375.795 276.425 375.882 279.018 375.815 C 285.451 376.042 291.891 376.102 298.338 375.995 C 299.871 375.969 301.948 375.765 304.568 375.385 C 306.761 375.065 308.845 374.912 310.818 374.925 L 424.528 375.015 C 425.211 375.015 425.787 374.504 425.868 373.825 C 426.081 372.039 425.301 371.139 423.528 371.125 C 403.768 371.005 383.758 371.022 363.498 371.175 C 357.051 371.222 350.381 371.205 343.488 371.125 C 334.275 371.019 325.251 371.089 316.418 371.335 C 316.185 371.342 316.078 371.462 316.098 371.695 L 316.118 371.995 C 315.485 371.349 315.278 370.765 315.498 370.245 L 314.358 367.935 C 314.885 366.102 314.755 364.075 313.968 361.855 C 315.718 361.965 317.238 361.315 318.838 361.465 C 319.418 361.525 319.988 361.645 320.548 361.825 C 323.568 362.765 326.628 363.729 329.728 364.715 C 334.115 366.115 339.455 366.582 345.748 366.115 C 355.461 366.815 364.208 366.742 371.988 365.895 C 374.761 365.589 378.188 364.755 382.268 363.395 C 382.595 363.289 382.775 363.065 382.808 362.725 C 382.888 362.025 382.641 361.362 382.068 360.735 C 381.848 358.935 381.341 358.089 380.548 358.195 C 381.988 356.655 380.988 352.945 380.558 351.075 L 430.698 351.095 C 430.191 351.075 429.815 351.115 429.568 351.215 C 428.928 351.482 429.048 351.592 429.928 351.545 C 431.308 351.479 432.711 351.539 434.138 351.725 C 434.598 351.785 434.825 352.045 434.818 352.505 C 434.665 362.932 434.675 373.575 434.848 384.435 C 434.855 384.969 434.605 385.249 434.098 385.275 C 433.731 385.302 433.711 385.399 434.038 385.565 L 434.448 385.775 L 137.958 386.035 L 137.868 379.115 C 137.856 378.181 137.444 377.297 136.738 376.685 C 128.465 369.505 119.101 363.915 108.648 359.915 L 111.338 350.555 L 137.688 350.805 Z"/>
  <path fill="#333333" d="M 334.948 351.265 C 335.248 352.299 333.918 353.072 330.958 353.585 C 327.085 353.499 322.908 353.642 318.428 354.015 C 317.8 354.076 317.468 354.787 317.831 355.295 C 317.845 355.316 317.861 355.336 317.878 355.355 C 317.885 355.369 317.901 355.625 317.928 356.125 C 317.801 355.812 317.581 355.689 317.268 355.755 C 316.778 355.857 316.581 356.45 316.914 356.824 C 316.948 356.862 316.986 356.896 317.028 356.925 C 322.801 361.025 329.285 363.209 336.478 363.475 C 339.618 363.595 342.781 363.705 345.968 363.805 L 345.748 366.115 C 339.455 366.582 334.115 366.115 329.728 364.715 C 326.628 363.729 323.568 362.765 320.548 361.825 C 319.988 361.645 319.418 361.525 318.838 361.465 C 317.238 361.315 315.718 361.965 313.968 361.855 C 313.688 358.035 312.675 354.459 310.928 351.125 L 334.948 351.265 Z"/>
  <path fill="#333333" d="M 430.698 351.095 C 434.125 351.009 436.301 350.992 437.228 351.045 C 444.781 351.465 448.701 355.622 448.988 363.515 L 448.918 389.135 C 447.065 387.115 445.085 386.092 442.978 386.065 C 440.111 386.025 437.268 385.929 434.448 385.775 L 434.038 385.565 C 433.711 385.399 433.731 385.302 434.098 385.275 C 434.605 385.249 434.855 384.969 434.848 384.435 C 434.675 373.575 434.665 362.932 434.818 352.505 C 434.825 352.045 434.598 351.785 434.138 351.725 C 432.711 351.539 431.308 351.479 429.928 351.545 C 429.048 351.592 428.928 351.482 429.568 351.215 C 429.815 351.115 430.191 351.075 430.698 351.095 Z"/>
  <path fill="#666867" d="M 82.658 353.135 L 80.348 360.625 C 63.248 359.092 47.665 363.015 33.598 372.395 C 32.998 372.795 32.605 373.409 32.418 374.235 C 32.345 374.549 32.471 374.825 32.798 375.065 C 33.009 375.22 33.285 375.247 33.518 375.135 C 35.125 374.375 36.775 373.442 38.468 372.335 C 40.061 371.289 42.035 370.215 44.388 369.115 C 54.921 364.175 66.015 361.899 77.668 362.285 C 78.081 362.299 78.471 362.209 78.838 362.015 L 79.888 361.475 C 79.888 362.622 79.791 363.522 79.598 364.175 C 75.878 376.715 72.151 389.252 68.418 401.785 C 67.598 404.539 66.931 407.372 66.418 410.285 C 63.858 410.839 61.455 410.449 59.208 409.115 C 56.055 407.249 53.318 405.615 50.998 404.215 C 41.848 397.855 32.808 391.175 28.228 381.055 C 27.568 379.609 27.248 376.335 27.268 371.235 C 27.515 371.382 27.711 371.565 27.858 371.785 C 28.005 372.021 28.355 372.002 28.488 371.75 C 28.495 371.736 28.502 371.721 28.508 371.705 C 29.038 370.185 29.468 368.645 30.628 367.455 C 34.508 363.469 39.878 360.252 46.738 357.805 C 58.705 353.545 70.678 351.989 82.658 353.135 Z"/>
  <path fill="#fba162" d="M 282.198 353.585 C 282.591 353.919 282.891 354.432 283.098 355.125 C 282.925 355.639 283.155 356.039 283.788 356.325 C 283.401 357.979 282.358 358.835 280.658 358.895 C 280.171 358.915 279.885 359.165 279.798 359.645 C 279.745 359.939 279.631 360.215 279.458 360.475 C 279.23 360.822 278.832 361.017 278.418 360.985 C 277.111 360.899 276.075 361.279 275.308 362.125 C 275.099 362.36 274.824 362.527 274.518 362.605 L 268.798 364.005 L 268.438 362.655 L 268.188 361.605 L 268.178 359.835 C 268.178 359.442 268.368 359.205 268.748 359.125 L 269.558 358.965 C 270.231 359.105 270.828 359.752 271.348 360.905 C 271.748 361.125 272.061 361.212 272.288 361.165 C 272.501 361.112 272.621 360.889 272.648 360.495 C 272.668 360.189 272.658 359.882 272.618 359.575 C 272.431 358.855 272.575 358.195 273.048 357.595 C 273.409 357.136 274.13 357.233 274.345 357.769 C 274.354 357.791 274.361 357.813 274.368 357.835 C 274.555 358.442 274.941 358.915 275.528 359.255 C 275.863 359.443 276.277 359.206 276.273 358.829 C 276.273 358.807 276.271 358.786 276.268 358.765 L 276.008 356.985 C 275.928 356.465 276.151 356.182 276.678 356.135 C 277.711 356.042 278.428 356.352 278.828 357.065 C 279.381 358.072 279.698 358.002 279.778 356.855 C 279.825 356.155 279.835 355.472 279.808 354.805 C 279.796 354.488 279.951 354.188 280.218 354.015 C 280.758 353.669 281.418 353.525 282.198 353.585 Z"/>
  <path fill="#cfcfcf" d="M 285.738 354.865 C 284.911 355.125 284.261 355.612 283.788 356.325 C 283.155 356.039 282.925 355.639 283.098 355.125 C 283.198 354.839 283.318 354.595 283.458 354.395 C 283.618 354.175 283.835 354.035 284.108 353.975 C 284.901 353.809 285.445 354.105 285.738 354.865 Z"/>
  <path fill="#07aba2" d="M 285.738 354.865 C 286.185 355.139 286.668 355.309 287.188 355.375 C 287.501 355.415 287.799 355.543 288.048 355.745 C 292.508 359.465 296.031 363.865 298.618 368.945 C 286.998 369.912 276.785 370.289 267.978 370.075 C 261.998 369.929 256.228 368.379 250.668 365.425 C 251.161 364.332 251.858 363.552 252.758 363.085 C 257.958 363.065 263.101 362.572 268.188 361.605 L 268.438 362.655 L 258.478 364.175 C 258.391 364.195 258.361 364.249 258.388 364.335 C 258.415 364.429 258.458 364.512 258.518 364.585 C 258.638 364.725 258.785 364.799 258.958 364.805 C 262.165 364.912 265.445 364.645 268.798 364.005 L 274.518 362.605 C 274.824 362.527 275.099 362.36 275.308 362.125 C 276.075 361.279 277.111 360.899 278.418 360.985 C 278.832 361.017 279.23 360.822 279.458 360.475 C 279.631 360.215 279.745 359.939 279.798 359.645 C 279.885 359.165 280.171 358.915 280.658 358.895 C 282.358 358.835 283.401 357.979 283.788 356.325 C 284.261 355.612 284.911 355.125 285.738 354.865 Z"/>
  <path fill="#ffffff" d="M 317.928 356.125 C 324.335 359.225 331.185 360.732 338.478 360.645 C 347.651 360.539 356.808 360.072 365.948 359.245 L 380.548 358.195 C 381.341 358.089 381.848 358.935 382.068 360.735 C 373.821 362.622 366.125 363.685 358.978 363.925 C 357.118 363.985 352.781 363.945 345.968 363.805 C 342.781 363.705 339.618 363.595 336.478 363.475 C 329.285 363.209 322.801 361.025 317.028 356.925 C 316.617 356.639 316.67 356.016 317.123 355.804 C 317.169 355.782 317.218 355.766 317.268 355.755 C 317.581 355.689 317.801 355.812 317.928 356.125 Z"/>
  <path fill="#333333" d="M 269.558 358.965 L 268.748 359.125 C 268.368 359.205 268.178 359.442 268.178 359.835 L 268.188 361.605 C 263.101 362.572 257.958 363.065 252.758 363.085 C 251.558 362.372 250.715 362.015 250.228 362.015 C 226.575 362.095 201.825 362.005 175.978 361.745 C 175.616 361.739 175.267 361.609 174.988 361.375 C 174.188 360.715 173.901 360.039 174.128 359.345 C 174.375 358.579 174.901 358.195 175.708 358.195 C 205.141 358.129 236.148 358.092 268.728 358.085 C 269.141 358.085 269.418 358.379 269.558 358.965 Z"/>
  <path fill="#818180" d="M 272.618 359.575 C 272.658 359.882 272.668 360.189 272.648 360.495 C 272.621 360.889 272.501 361.112 272.288 361.165 C 272.061 361.212 271.748 361.125 271.348 360.905 C 272.295 360.505 272.718 360.062 272.618 359.575 Z"/>
  <path fill="#666867" d="M 108.648 359.915 C 119.101 363.915 128.465 369.505 136.738 376.685 C 137.444 377.297 137.856 378.181 137.868 379.115 L 137.958 386.035 L 137.928 410.325 L 93.958 410.295 L 105.848 369.265 C 106.035 368.605 106.441 368.419 107.068 368.705 C 113.141 371.459 118.601 374.345 123.448 377.365 C 126.368 379.179 129.238 380.975 132.058 382.755 C 132.638 383.122 133.101 383.009 133.448 382.415 L 133.598 382.175 C 133.734 381.944 133.669 381.646 133.448 381.485 C 127.041 376.872 120.688 373.062 114.388 370.055 C 112.161 368.989 109.861 368.062 107.488 367.275 C 106.987 367.113 106.707 366.58 106.858 366.075 L 108.648 359.915 Z"/>
  <path fill="#818180" d="M 80.348 360.625 C 80.061 360.799 79.908 361.082 79.888 361.475 L 78.838 362.015 C 78.471 362.209 78.081 362.299 77.668 362.285 C 66.015 361.899 54.921 364.175 44.388 369.115 C 42.035 370.215 40.061 371.289 38.468 372.335 C 36.775 373.442 35.125 374.375 33.518 375.135 C 33.285 375.247 33.009 375.22 32.798 375.065 C 32.471 374.825 32.345 374.549 32.418 374.235 C 32.605 373.409 32.998 372.795 33.598 372.395 C 47.665 363.015 63.248 359.092 80.348 360.625 Z"/>
  <path fill="#fba162" d="M 382.068 360.735 C 382.641 361.362 382.888 362.025 382.808 362.725 C 382.775 363.065 382.595 363.289 382.268 363.395 C 378.188 364.755 374.761 365.589 371.988 365.895 C 364.208 366.742 355.461 366.815 345.748 366.115 L 345.968 363.805 C 352.781 363.945 357.118 363.985 358.978 363.925 C 366.125 363.685 373.821 362.622 382.068 360.735 Z"/>
  <path fill="#f7f5de" d="M 268.438 362.655 L 268.798 364.005 C 265.445 364.645 262.165 364.912 258.958 364.805 C 258.785 364.799 258.638 364.725 258.518 364.585 C 258.458 364.512 258.415 364.429 258.388 364.335 C 258.361 364.249 258.391 364.195 258.478 364.175 L 268.438 362.655 Z"/>
  <path fill="#ffffff" d="M 250.668 365.425 C 256.228 368.379 261.998 369.929 267.978 370.075 C 276.785 370.289 286.998 369.912 298.618 368.945 L 314.358 367.935 L 315.498 370.245 C 303.531 373.065 293.025 374.162 283.978 373.535 C 281.218 373.349 279.148 373.302 277.768 373.395 C 273.668 373.169 269.571 372.952 265.478 372.745 C 261.258 372.532 256.358 370.565 250.778 366.845 C 250.051 366.079 250.015 365.605 250.668 365.425 Z"/>
  <path fill="#333333" d="M 250.778 366.845 C 256.358 370.565 261.258 372.532 265.478 372.745 C 269.571 372.952 273.668 373.169 277.768 373.395 L 278.458 373.445 C 278.811 373.472 279.015 373.662 279.068 374.015 C 279.155 374.582 279.138 375.182 279.018 375.815 C 276.425 375.882 273.835 375.795 271.248 375.555 C 269.235 375.369 267.228 375.185 265.228 375.005 C 263.361 374.832 261.518 374.792 259.698 374.885 C 253.818 375.179 248.041 375.135 242.368 374.755 C 241.338 374.69 240.488 373.924 240.318 372.905 C 240.305 372.819 240.308 372.735 240.328 372.655 C 240.512 371.88 241.192 371.323 241.988 371.295 C 245.161 371.175 248.718 371.135 252.658 371.175 C 253.071 371.182 253.401 371.035 253.648 370.735 C 253.888 370.449 253.838 370.229 253.498 370.075 C 251.738 369.302 250.831 368.225 250.778 366.845 Z"/>
  <path fill="#fba162" d="M 315.498 370.245 C 315.278 370.765 315.485 371.349 316.118 371.995 C 316.151 372.095 316.165 372.189 316.158 372.275 C 316.145 372.435 316.068 372.549 315.928 372.615 L 310.818 374.925 C 308.845 374.912 306.761 375.065 304.568 375.385 C 301.948 375.765 299.871 375.969 298.338 375.995 C 291.891 376.102 285.451 376.042 279.018 375.815 C 279.138 375.182 279.155 374.582 279.068 374.015 C 279.015 373.662 278.811 373.472 278.458 373.445 L 277.768 373.395 C 279.148 373.302 281.218 373.349 283.978 373.535 C 293.025 374.162 303.531 373.065 315.498 370.245 Z"/>
  <path fill="#333333" d="M 310.818 374.925 L 315.928 372.615 C 316.068 372.549 316.145 372.435 316.158 372.275 C 316.165 372.189 316.151 372.095 316.118 371.995 L 316.098 371.695 C 316.078 371.462 316.185 371.342 316.418 371.335 C 325.251 371.089 334.275 371.019 343.488 371.125 C 350.381 371.205 357.051 371.222 363.498 371.175 C 383.758 371.022 403.768 371.005 423.528 371.125 C 425.301 371.139 426.081 372.039 425.868 373.825 C 425.787 374.504 425.211 375.015 424.528 375.015 L 310.818 374.925 Z"/>
  <path fill="#9a9a98" d="M 434.448 385.775 C 437.268 385.929 440.111 386.025 442.978 386.065 C 445.085 386.092 447.065 387.115 448.918 389.135 C 449.671 389.869 450.181 390.642 450.448 391.455 C 450.761 392.562 451.111 393.645 451.498 394.705 C 452.528 397.545 452.048 399.825 451.218 402.555 C 451.171 402.702 451.228 402.779 451.388 402.785 L 451.668 402.795 C 451.735 402.982 451.598 403.455 451.258 404.215 C 448.618 408.255 444.781 410.289 439.748 410.315 C 344.918 410.775 250.058 410.425 155.228 410.315 C 149.681 410.309 143.915 410.312 137.928 410.325 L 137.958 386.035 L 434.448 385.775 Z M 438.398 392.465 C 438.398 391.665 437.749 391.015 436.948 391.015 L 142.528 391.015 C 141.727 391.015 141.078 391.665 141.078 392.465 L 141.078 392.505 C 141.078 393.306 141.727 393.955 142.528 393.955 L 436.948 393.955 C 437.749 393.955 438.398 393.306 438.398 392.505 L 438.398 392.465 Z"/>
  <rect fill="#cfcfcf" x="141.078" y="391.015" width="297.32" height="2.94" rx="1.45"/>
  <path fill="#666867" d="M 450.448 391.455 C 452.795 394.769 453.201 398.549 451.668 402.795 L 451.388 402.785 C 451.228 402.779 451.171 402.702 451.218 402.555 C 452.048 399.825 452.528 397.545 451.498 394.705 C 451.111 393.645 450.761 392.562 450.448 391.455 Z"/>
  <path fill="#dedabf40" d="M 50.998 404.215 C 53.318 405.615 56.055 407.249 59.208 409.115 C 61.455 410.449 63.858 410.839 66.418 410.285 L 93.958 410.295 L 137.928 410.325 C 143.915 410.312 149.681 410.309 155.228 410.315 C 250.058 410.425 344.918 410.775 439.748 410.315 C 444.781 410.289 448.618 408.255 451.258 404.215 C 457.638 403.822 463.878 403.715 469.978 403.895 C 473.011 403.989 475.325 404.485 476.918 405.385 C 481.125 407.752 483.131 411.762 482.938 417.415 C 482.738 423.389 480.598 427.392 476.518 429.425 C 473.138 431.105 468.778 430.905 464.978 430.885 C 444.678 430.799 424.305 430.745 403.858 430.725 C 282.865 430.625 161.838 430.682 40.778 430.895 C 34.831 430.909 30.781 430.452 28.628 429.525 C 23.981 427.532 21.745 423.232 21.918 416.625 C 22.078 410.472 24.505 406.529 29.198 404.795 C 30.878 404.182 34.418 403.925 39.818 404.025 C 43.391 404.092 47.118 404.155 50.998 404.215 Z"/>
</svg>