<svg xmlns="http://www.w3.org/2000/svg" viewBox="0 0 400 300"><link xmlns="" type="text/css" rel="stylesheet" id="dark-mode-custom-link"/><link xmlns="" type="text/css" rel="stylesheet" id="dark-mode-general-link"/><style xmlns="" lang="en" type="text/css" id="dark-mode-custom-style"/><style xmlns="" lang="en" type="text/css" id="dark-mode-native-style"/><style xmlns="" lang="en" type="text/css" id="dark-mode-native-sheet"/><g id="_378_fitness_flatline" data-name="#378_fitness_flatline"><rect x="193.93" y="203.2" width="9.24" height="50.78" fill="#231f20"/><path d="M203.17,254.48h-9.24a.5.5,0,0,1-.5-.5V203.2a.5.5,0,0,1,.5-.5h9.24a.5.5,0,0,1,.5.5V254A.5.5,0,0,1,203.17,254.48Zm-8.74-1h8.24V203.7h-8.24Z" fill="#231f20"/><rect x="175.05" y="253.98" width="47.48" height="4.84" fill="#fff"/><path d="M222.53,259.32H175.05a.5.5,0,0,1-.5-.5V254a.5.5,0,0,1,.5-.5h47.48a.5.5,0,0,1,.5.5v4.84A.5.5,0,0,1,222.53,259.32Zm-47-1H222v-3.84H175.55Z" fill="#231f20"/><rect x="170.18" y="193.24" width="56.74" height="13.72" rx="6.86" fill="#fff"/><path d="M220.06,207.46H177a7.36,7.36,0,1,1,0-14.72h43a7.36,7.36,0,0,1,0,14.72Zm-43-13.72a6.36,6.36,0,1,0,0,12.72h43a6.36,6.36,0,0,0,0-12.72Z" fill="#231f20"/><path d="M298.6,220.27c-2.19,15.15-4.54,30.31-4.54,30.31H273.8l-2.63-30.31-1-11.26-22.53-4.94,9.49-29.83s44.65,11.52,45.1,16C302.47,192.44,300.6,206.36,298.6,220.27Z" fill="#fff"/><path d="M294.06,251.08H273.8a.51.51,0,0,1-.5-.46l-3.58-41.2-22.17-4.86a.51.51,0,0,1-.37-.64l9.49-29.83a.51.51,0,0,1,.61-.34c7.51,1.94,45,11.85,45.47,16.48.19,1.85-1,11.7-3.65,30.11h0c-2.17,15-4.52,30.16-4.55,30.31A.49.49,0,0,1,294.06,251.08Zm-19.8-1h19.37c.4-2.56,2.51-16.31,4.48-29.88h0c3.23-22.51,3.77-28.67,3.64-29.87-.3-3-27.11-11-44.27-15.49L248.3,203.7l22,4.82a.51.51,0,0,1,.39.44Zm24.34-29.81h0Z" fill="#231f20"/><path d="M156,196.06l-28.91,2.76L125.17,218l-2.69,27.59H104.41S102.23,233,100.13,218c-2.52-18-4.93-39.38-3.29-46.18,3-12.38,46.42-8.89,46.42-8.89Z" fill="#fff"/><path d="M122.48,246.11H104.41a.5.5,0,0,1-.49-.42c0-.12-2.21-12.81-4.28-27.6-2.43-17.31-5-39.41-3.29-46.37,3.05-12.65,45.16-9.42,47-9.27a.5.5,0,0,1,.43.32l12.7,33.11a.52.52,0,0,1,0,.44.56.56,0,0,1-.38.24l-28.5,2.72L123,245.66A.51.51,0,0,1,122.48,246.11Zm-17.65-1H122l4.52-46.34a.5.5,0,0,1,.45-.45l28.26-2.7-12.35-32.2a182.57,182.57,0,0,0-21.72-.17c-14.45.87-22.7,3.88-23.86,8.71-1.3,5.38-.16,21.29,3.3,46C102.49,231.23,104.44,242.8,104.83,245.11Z" fill="#231f20"/><polygon points="170.13 159.56 136.82 162.95 142.69 202.69 200.12 196.35 257.15 209 270.3 175.6 229.17 162.95 170.13 159.56" fill="#231f20"/><path d="M257.15,209.5H257l-57-12.64-57.35,6.33a.5.5,0,0,1-.55-.42L136.33,163a.46.46,0,0,1,.1-.38.46.46,0,0,1,.34-.19l33.31-3.39h.08l59,3.38.12,0,41.12,12.65a.49.49,0,0,1,.32.66l-13.15,33.41A.49.49,0,0,1,257.15,209.5Zm-57-13.65h.11l56.61,12.56,12.79-32.5-40.55-12.47-58.94-3.38-32.75,3.33,5.72,38.73,57-6.28Z" fill="#231f20"/><path d="M237.06,69.14c1.66-2.77,2.47-6.67,3.33-9.74.59-2.13,1.49-4.31,1.55-6.54,0-.42-.87-5.28-2.15-4.19a8.57,8.57,0,0,0,2.92-5.45,9.58,9.58,0,0,0-5.15.21,20.14,20.14,0,0,0,4-2c1-.64,2-1.71,1.59-2.81s-2-1.25-3.29-1.21c-7.18.23-14.1-2.91-21.28-3.17A12.82,12.82,0,0,0,212,35.44a12.38,12.38,0,0,0-3,2.47c-1.47,1.55-2.33,3.75-3.79,5.22-1,1-2.45,1.36-3.38,2.62-1.79,2.41-1.67,5.62-1.63,8.47.05,4.84,1.15,9.74,1.08,14.48,5.47,1,11,2.06,16.54,2.61C222.19,71.74,234.11,74.08,237.06,69.14Z" fill="#fff"/><path d="M228.16,72.74a67.14,67.14,0,0,1-8.31-.68c-.82-.1-1.54-.2-2.14-.25-4.52-.45-9.06-1.27-13.45-2.06l-3.12-.56a.51.51,0,0,1-.42-.5,59.33,59.33,0,0,0-.53-7.49,67,67,0,0,1-.55-7v-.38c0-2.79-.07-6,1.74-8.4a6.78,6.78,0,0,1,2-1.68,7.14,7.14,0,0,0,1.39-1,14.45,14.45,0,0,0,1.86-2.55,17.22,17.22,0,0,1,1.91-2.66A12.79,12.79,0,0,1,211.72,35a13.24,13.24,0,0,1,6.88-1.31,54.84,54.84,0,0,1,9.93,1.6,45.31,45.31,0,0,0,11.32,1.57c1,0,3.18-.1,3.77,1.55.4,1.11-.27,2.37-1.79,3.39-.35.23-.7.45-1.07.66a10.3,10.3,0,0,1,2.06.27.5.5,0,0,1,.38.55,9.08,9.08,0,0,1-2.32,5c1.11,1,1.56,4.35,1.56,4.56a18.51,18.51,0,0,1-1.08,5.05c-.17.54-.34,1.08-.49,1.61s-.32,1.17-.48,1.78a32.18,32.18,0,0,1-2.9,8.09h0C235.92,72,232.14,72.74,228.16,72.74Zm-26.43-4.46,2.71.49c4.37.78,8.88,1.6,13.37,2,.6.06,1.33.15,2.16.26,5,.63,14.28,1.81,16.66-2.19h0a31.4,31.4,0,0,0,2.8-7.82q.24-.93.48-1.8c.15-.54.32-1.09.49-1.64a17.88,17.88,0,0,0,1-4.78c0-.71-.76-3.63-1.28-3.83l0,0h0a.51.51,0,0,1-.68-.07.47.47,0,0,1,0-.68h0a8.09,8.09,0,0,0,2.67-4.68,9.12,9.12,0,0,0-4.43.29.5.5,0,0,1-.63-.31.51.51,0,0,1,.3-.63,18.66,18.66,0,0,0,3.9-2c.86-.57,1.68-1.45,1.4-2.21s-1.65-.92-2.8-.89a46.64,46.64,0,0,1-11.56-1.59,53.82,53.82,0,0,0-9.76-1.58,10.34,10.34,0,0,0-9.26,3.56,15.7,15.7,0,0,0-1.79,2.5,16,16,0,0,1-2,2.73,8.47,8.47,0,0,1-1.58,1.15,5.63,5.63,0,0,0-1.76,1.42c-1.61,2.17-1.57,5-1.54,7.79v.38a68.84,68.84,0,0,0,.54,6.87A64.07,64.07,0,0,1,201.73,68.28Zm35.33.86h0Z" fill="#231f20"/><path d="M207.46,66.6c-.07-6.13-9.78-9.08-10.34-1.95a10.57,10.57,0,0,0,1.66,7,6.24,6.24,0,0,0,6.43,2.55" fill="#fff"/><path d="M203.88,74.9a7,7,0,0,1-5.5-2.94,11.06,11.06,0,0,1-1.76-7.35c.27-3.51,2.61-4.68,4.72-4.62A6.94,6.94,0,0,1,208,66.6a.5.5,0,0,1-.49.5.49.49,0,0,1-.51-.49A6,6,0,0,0,201.3,61c-2.14-.06-3.49,1.28-3.68,3.7a10,10,0,0,0,1.57,6.68,5.66,5.66,0,0,0,5.89,2.37.5.5,0,0,1,.27,1A5.6,5.6,0,0,1,203.88,74.9Z" fill="#231f20"/><path d="M229.08,69.05c1.44-5.95,11.57-6.65,10.52.42a10.51,10.51,0,0,1-3.2,6.47,6.21,6.21,0,0,1-6.84,1" fill="#fff"/><path d="M232.07,78.09a5.79,5.79,0,0,1-2.75-.67.5.5,0,1,1,.48-.88,5.69,5.69,0,0,0,6.28-1,10,10,0,0,0,3-6.16c.36-2.41-.65-4-2.76-4.43a6,6,0,0,0-6.78,4.2.5.5,0,1,1-1-.23,6.94,6.94,0,0,1,7.94-5c2.06.41,4.08,2.08,3.56,5.56a11.06,11.06,0,0,1-3.36,6.77A7.15,7.15,0,0,1,232.07,78.09Z" fill="#231f20"/><path d="M233.23,100.17c-.41-2.14-4.37-3.32-8.89-4l.32-4.68.63-9.2-17.91-2.67L205.68,87l-.54,2.39-.77,3.36c-16-7-65.43-21.15-82.77-13.9-21.34,8.93-4.89,79.36-2.52,84.1,0,0,11.92-1.45,13.27,1.6s1.08,4.61,3.12,5.29a1.75,1.75,0,0,0,2.37-1.47,2.06,2.06,0,0,0,3.27.68s1.81,1.81,3-.34c0,0,1.58,1.92,2.48.11s1.59-10.5-1.69-12.42-10.5-4.51-11.63-6.32c0,0,11.52-24.93,6.55-43.3,0,0,8.81,9,35,15.74,0,0,7.45,13.56,8.35,13.78s37.31,3.62,37.31,3.62l9.9-17.4S234.22,105.36,233.23,100.17Z" fill="#fff"/><path d="M136.21,170.47a2.72,2.72,0,0,1-.9-.16c-1.65-.55-2-1.66-2.53-3.21-.23-.67-.48-1.44-.88-2.34-.88-2-8.29-1.85-12.76-1.31a.5.5,0,0,1-.51-.27c-1.67-3.35-13.87-52.33-5.46-75,1.86-5,4.63-8.29,8.24-9.8,9.67-4,28.27-1.39,42.17,1.56,16.72,3.54,32.5,8.7,40.43,12.1l2.89-12.51a.51.51,0,0,1,.56-.38l17.9,2.66a.5.5,0,0,1,.43.53l-.92,13.42c5.57.85,8.46,2.26,8.85,4.3h0c1,5.24-2.64,21.86-2.8,22.56a.58.58,0,0,1,0,.14L221,140.16a.53.53,0,0,1-.48.25c-3.73-.34-36.47-3.4-37.38-3.62-.73-.19-3.62-4.84-8.57-13.84-20.87-5.42-30.63-12.15-33.81-14.74,2,9.24.18,19.81-1.79,27.23a104.53,104.53,0,0,1-5,14.57c.9,1,3.93,2.42,6.63,3.66,1.78.82,3.47,1.59,4.67,2.3,3.67,2.15,2.83,11.2,1.89,13.08a1.66,1.66,0,0,1-1.29,1,2.2,2.2,0,0,1-1.57-.61,2.12,2.12,0,0,1-1.32.77,2.58,2.58,0,0,1-1.83-.58,2.55,2.55,0,0,1-1.94.38,2.45,2.45,0,0,1-1.15-.66,2.22,2.22,0,0,1-.76.8A1.89,1.89,0,0,1,136.21,170.47Zm-11.33-8.37c3.4,0,7.12.44,7.93,2.25a22.66,22.66,0,0,1,.91,2.44c.5,1.5.73,2.18,1.9,2.58a1.3,1.3,0,0,0,1.09,0,1.68,1.68,0,0,0,.63-1.05.51.51,0,0,1,.42-.41.5.5,0,0,1,.52.27,2,2,0,0,0,1.1.93,1.74,1.74,0,0,0,1.43-.43.49.49,0,0,1,.65,0,1.93,1.93,0,0,0,1.32.55,1.38,1.38,0,0,0,.95-.79.52.52,0,0,1,.39-.25.57.57,0,0,1,.43.18c.2.25.76.75,1.14.71.18,0,.35-.19.51-.5.91-1.83,1.37-10.08-1.5-11.77-1.16-.68-2.83-1.44-4.59-2.25-3.3-1.52-6.41-3-7.21-4.24a.47.47,0,0,1,0-.47c.11-.25,11.38-25,6.52-43a.49.49,0,0,1,.23-.56.52.52,0,0,1,.61.08c.08.09,9.05,9,34.77,15.61a.5.5,0,0,1,.31.24c3.36,6.11,7.3,12.86,8.1,13.55,1.66.26,26.74,2.62,36.85,3.56l9.7-17c.27-1.22,3.71-17.22,2.78-22.08h0c-.3-1.56-3.3-2.82-8.47-3.57a.51.51,0,0,1-.43-.53l.92-13.41-17-2.53-2.92,12.64a.5.5,0,0,1-.26.34.54.54,0,0,1-.43,0c-16.35-7.19-65.48-21-82.37-13.9-3.34,1.4-5.93,4.5-7.68,9.23-7.93,21.36,3.25,68.61,5.28,73.87A54.38,54.38,0,0,1,124.88,162.1Zm105.55-39.58h0Z" fill="#231f20"/><path d="M206.29,83.57a16,16,0,0,0,5.11,6c3.54,2.71,8.95,6,13.73,6l.68-9.85a44.36,44.36,0,0,1-10.34-1.46,30.22,30.22,0,0,1-8.64-3Z" fill="#231f20"/><path d="M225.09,96.05c-5.3,0-11-3.79-14-6a16.31,16.31,0,0,1-5.27-6.23.55.55,0,0,1,0-.31l.54-2.38a.47.47,0,0,1,.29-.35.5.5,0,0,1,.46,0,29.66,29.66,0,0,0,8.5,3,43.25,43.25,0,0,0,10.22,1.45.48.48,0,0,1,.36.16.49.49,0,0,1,.14.38l-.68,9.84A.52.52,0,0,1,225.09,96.05ZM206.81,83.52a15.61,15.61,0,0,0,4.9,5.69c2.77,2.12,8.06,5.63,12.95,5.83l.61-8.84a45.6,45.6,0,0,1-9.91-1.48,32.77,32.77,0,0,1-8.2-2.76Z" fill="#231f20"/><path d="M235.85,53.31,232.62,75a13.64,13.64,0,0,1-.68,2.73,13.89,13.89,0,0,1-15.07,9l-1.6-.24a13.9,13.9,0,0,1-11.71-11.82,14.07,14.07,0,0,1,0-3.94L206.82,49s2.9,4.86,12.66,5.89S235.85,53.31,235.85,53.31Z" fill="#fff"/><path d="M218.89,87.37a13.69,13.69,0,0,1-2.1-.16l-1.6-.24a14.37,14.37,0,0,1-12.1-16.32l3.23-21.73a.5.5,0,0,1,.4-.41.49.49,0,0,1,.53.23s2.93,4.67,12.28,5.65a38,38,0,0,0,16.14-1.54.52.52,0,0,1,.5.07.54.54,0,0,1,.18.47l-3.23,21.72a14.66,14.66,0,0,1-.71,2.83A14.44,14.44,0,0,1,218.89,87.37ZM207.14,50.21l-3.06,20.58A13.36,13.36,0,0,0,215.34,86l1.6.24A13.31,13.31,0,0,0,232.13,75l3.11-20.92a39.71,39.71,0,0,1-15.81,1.33C212.1,54.62,208.55,51.74,207.14,50.21Z" fill="#231f20"/><path d="M219.29,63.82s3.39,10.5,1.37,10.46-4.7-1.87-4.7-1.87" fill="#fff"/><path d="M220.67,74.78h0c-2.15-.06-4.85-1.87-5-2a.51.51,0,0,1-.14-.7.52.52,0,0,1,.7-.13s2.57,1.73,4.43,1.78c.53-.49-.33-5.07-1.86-9.81a.5.5,0,1,1,.95-.3c.69,2.12,2.84,9.17,1.7,10.71A1,1,0,0,1,220.67,74.78Z" fill="#231f20"/><path d="M221.6,80.64A17.55,17.55,0,0,1,213,78a.5.5,0,0,1-.19-.68.52.52,0,0,1,.69-.19c6.35,3.62,10.12,2.27,10.16,2.25a.5.5,0,0,1,.65.29.49.49,0,0,1-.29.64A7,7,0,0,1,221.6,80.64Z" fill="#231f20"/><ellipse cx="213.6" cy="61.64" rx="2.15" ry="0.95" transform="translate(128.27 266.93) rotate(-83.53)" fill="#231f20"/><ellipse cx="226.24" cy="63.08" rx="2.15" ry="0.95" transform="translate(138.06 280.76) rotate(-83.53)" fill="#231f20"/><path d="M187.93,85.06s.72,21-4.92,27.53-14.28,9-14.28,9-1.08,22.63,1.4,38L232.42,163l6.64-27.79s-5.66-20.9-2.75-38.83H228.8s-3.62,27.94-18.53,25.08S198.14,87,198.14,87Z" fill="#68e1fd"/><path d="M104.41,245.61s-22.13,16.94-19,18.75,41-2.26,41-2.26l-3.92-16.49Z" fill="#fff"/><path d="M90.35,265.31c-2.63,0-4.52-.15-5.16-.52a1.1,1.1,0,0,1-.56-.89c-.23-3.42,16.18-16.16,19.48-18.68a.46.46,0,0,1,.3-.11h18.07a.49.49,0,0,1,.48.39L126.88,262a.47.47,0,0,1-.08.41.5.5,0,0,1-.35.21C123.34,262.93,100.87,265.31,90.35,265.31Zm14.23-19.2c-7.46,5.73-19.1,15.51-19,17.72,0,.06,0,.07.06.09,2.19,1.26,25-.64,40.09-2.26l-3.7-15.55Z" fill="#231f20"/><path d="M273.8,250.58l-1.47,14.24h35.81a1.93,1.93,0,0,0,1.11-3.5l-15.19-10.74Z" fill="#fff"/><path d="M308.14,265.32H272.33a.51.51,0,0,1-.37-.16.52.52,0,0,1-.13-.39l1.47-14.24a.51.51,0,0,1,.5-.45h20.26a.52.52,0,0,1,.29.09l15.19,10.75a2.42,2.42,0,0,1-1.4,4.4Zm-35.26-1h35.26a1.38,1.38,0,0,0,1.36-1,1.4,1.4,0,0,0-.54-1.6L293.9,251.08H274.25Z" fill="#231f20"/><path d="M331.83,133.23a4.9,4.9,0,0,1,.78-2.74v-1.06h13.11c1.41,0,2.55,1.7,2.55,3.8s-1.14,3.8-2.55,3.8H332.61V136A4.85,4.85,0,0,1,331.83,133.23Z" fill="#231f20"/><path d="M345.72,137.53H332.61a.51.51,0,0,1-.5-.5v-.91a5.74,5.74,0,0,1,0-5.78v-.91a.51.51,0,0,1,.5-.5h13.11c1.71,0,3,1.89,3,4.3S347.43,137.53,345.72,137.53Zm-12.61-1h12.61c1.11,0,2-1.51,2-3.3s-.94-3.3-2-3.3H333.11v.56a.48.48,0,0,1-.09.29,4.69,4.69,0,0,0,0,4.9.52.52,0,0,1,.09.29Z" fill="#231f20"/><ellipse cx="332.61" cy="133.23" rx="2.54" ry="3.8" fill="#fff"/><path d="M332.61,137.53c-1.7,0-3-1.89-3-4.3s1.34-4.3,3-4.3,3.05,1.89,3.05,4.3S334.32,137.53,332.61,137.53Zm0-7.6c-1.11,0-2,1.51-2,3.3s.93,3.3,2,3.3,2.05-1.51,2.05-3.3S333.72,129.93,332.61,129.93Z" fill="#231f20"/><path d="M306.65,133.23a30.83,30.83,0,0,1,5-17.5V109h11.25c9,0,16.26,10.87,16.26,24.28s-7.28,24.28-16.26,24.28H311.66v-6.77A30.86,30.86,0,0,1,306.65,133.23Z" fill="#fff"/><path d="M322.91,158H311.66a.5.5,0,0,1-.5-.5v-6.62a33.63,33.63,0,0,1,0-35.32V109a.5.5,0,0,1,.5-.5h11.25c9.24,0,16.76,11.12,16.76,24.78S332.15,158,322.91,158Zm-10.75-1h10.75c8.69,0,15.76-10.67,15.76-23.78s-7.07-23.78-15.76-23.78H312.16v6.28a.47.47,0,0,1-.09.28,30.24,30.24,0,0,0-4.92,17.22,30.24,30.24,0,0,0,4.92,17.22.5.5,0,0,1,.09.29Z" fill="#231f20"/><ellipse cx="311.66" cy="133.23" rx="16.26" ry="24.28" fill="#231f20"/><path d="M311.66,158c-9.24,0-16.76-11.12-16.76-24.78s7.52-24.78,16.76-24.78,16.76,11.12,16.76,24.78S320.9,158,311.66,158Zm0-48.56c-8.69,0-15.76,10.67-15.76,23.78S303,157,311.66,157s15.76-10.67,15.76-23.78S320.35,109.45,311.66,109.45Z" fill="#231f20"/><path d="M236.31,96.33s21.44-2.91,25.85,6.81c3,6.68,10,44.2,10,44.2l13-10.31,18.38,2.8s-24.44,44.4-41.33,37.64-24.78-49.93-24.78-49.93a70.79,70.79,0,0,1-3-15.67A51.47,51.47,0,0,1,236.31,96.33Z" fill="#fff"/><path d="M265.89,178.68a10.43,10.43,0,0,1-3.92-.75c-7.14-2.85-13.54-12.21-19-27.79a169.26,169.26,0,0,1-6.08-22.51,72.41,72.41,0,0,1-3-15.73,52.3,52.3,0,0,1,2-15.72.48.48,0,0,1,.41-.35c.89-.12,21.86-2.84,26.37,7.1,2.81,6.19,8.82,37.84,9.88,43.5l12.31-9.79a.5.5,0,0,1,.39-.11l18.37,2.8a.51.51,0,0,1,.37.28.47.47,0,0,1,0,.46,171.27,171.27,0,0,1-14.37,21.43C280.39,172.92,272.45,178.68,265.89,178.68ZM236.7,96.78a50.78,50.78,0,0,0-1.82,15.06,71.18,71.18,0,0,0,3,15.54c.1.5,8.05,43.05,24.49,49.63a9.46,9.46,0,0,0,3.51.66c14.9,0,34-32.5,36.85-37.46l-17.45-2.65-12.79,10.18a.51.51,0,0,1-.48.07.48.48,0,0,1-.32-.38c-.07-.37-7-37.53-10-44.08C257.79,94.72,239.37,96.48,236.7,96.78Z" fill="#231f20"/><path d="M267.25,133.23a4.9,4.9,0,0,1,.78-2.74v-1.06H313.2c1.41,0,2.54,1.7,2.54,3.8s-1.13,3.8-2.54,3.8H268V136A4.85,4.85,0,0,1,267.25,133.23Z" fill="#fff"/><path d="M313.2,137.53H268a.5.5,0,0,1-.5-.5v-.91a5.74,5.74,0,0,1,0-5.78v-.91a.5.5,0,0,1,.5-.5H313.2c1.71,0,3,1.89,3,4.3S314.91,137.53,313.2,137.53Zm-44.67-1H313.2c1.11,0,2-1.51,2-3.3s-.93-3.3-2-3.3H268.53v.56a.48.48,0,0,1-.09.29,4.69,4.69,0,0,0,0,4.9.52.52,0,0,1,.09.29Z" fill="#231f20"/><path d="M287.89,125.45a2.93,2.93,0,0,1-.32-1c-.05-1.31,1.73-2,2.93-1.53a6,6,0,0,1,2.53,2.93,5.11,5.11,0,0,1-1-2.14,1.73,1.73,0,0,1,1.06-1.9,2.24,2.24,0,0,1,2,.74,8.36,8.36,0,0,1,2.3,3.44,4.35,4.35,0,0,1,.11-3.08,2.44,2.44,0,0,1,2.56-1.42c1.41.3,2,2,2.34,3.36a3,3,0,0,1,.75-2.48c1.05-.83,2.58.07,3.46,1.07,3.35,3.79,5.14,12.8.53,16.46s-12.3,3.26-17.05.11c-2.75-1.82-2.45-3.64-1.58-6.48a11.12,11.12,0,0,0-.56-7.82C288,125.6,287.93,125.52,287.89,125.45Z" fill="#fff"/><path d="M299,143a17,17,0,0,1-9.13-2.57c-3-2-2.65-4.19-1.78-7a10.61,10.61,0,0,0-.53-7.46l-.11-.23a3.15,3.15,0,0,1-.37-1.23,2,2,0,0,1,.92-1.72,2.92,2.92,0,0,1,2.71-.28,3.56,3.56,0,0,1,.9.55,2.06,2.06,0,0,1,1.4-1.69,2.62,2.62,0,0,1,2.48.85,8.72,8.72,0,0,1,1.31,1.47,3.84,3.84,0,0,1,.31-1,3,3,0,0,1,3.11-1.69,3.06,3.06,0,0,1,2.05,1.79,2.05,2.05,0,0,1,.63-.81c1.27-1,3-.12,4.15,1.13a16.18,16.18,0,0,1,3.38,11.12,8.39,8.39,0,0,1-2.92,6.06A13.56,13.56,0,0,1,299,143Zm-9.35-19.75a2,2,0,0,0-1.08.33,1,1,0,0,0-.49.85,2.23,2.23,0,0,0,.28.85h0l.1.22a11.56,11.56,0,0,1,.58,8.18c-.88,2.89-1,4.33,1.39,5.92,4.29,2.84,11.8,3.62,16.46-.09a7.59,7.59,0,0,0,2.55-5.36,15.13,15.13,0,0,0-3.14-10.38c-.65-.73-2-1.65-2.79-1a2.67,2.67,0,0,0-.55,2.09.5.5,0,0,1-1,.12c-.28-1.16-.79-2.74-2-3a2,2,0,0,0-2,1.14,3.91,3.91,0,0,0-.08,2.73.51.51,0,0,1-.32.62.51.51,0,0,1-.63-.31,8,8,0,0,0-2.16-3.24c-.41-.37-1-.79-1.54-.63a1.26,1.26,0,0,0-.7,1.37,2.47,2.47,0,0,0,.2.74c.25.39.48.8.7,1.22a.5.5,0,0,1-.19.67.51.51,0,0,1-.67-.16,9.14,9.14,0,0,1-.72-1.25,3.81,3.81,0,0,0-1.59-1.5A1.76,1.76,0,0,0,289.64,123.21Z" fill="#231f20"/><path d="M257.15,133.23a30.83,30.83,0,0,1,5-17.5V109h11.25c9,0,16.26,10.87,16.26,24.28s-7.28,24.28-16.26,24.28H262.16v-6.77A30.86,30.86,0,0,1,257.15,133.23Z" fill="#231f20"/><path d="M273.41,158H262.16a.5.5,0,0,1-.5-.5v-6.62a33.63,33.63,0,0,1,0-35.32V109a.5.5,0,0,1,.5-.5h11.25c9.24,0,16.76,11.12,16.76,24.78S282.65,158,273.41,158Zm-10.75-1h10.75c8.69,0,15.76-10.67,15.76-23.78s-7.07-23.78-15.76-23.78H262.66v6.28a.47.47,0,0,1-.09.28,30.24,30.24,0,0,0-4.92,17.22,30.24,30.24,0,0,0,4.92,17.22.5.5,0,0,1,.09.29Z" fill="#231f20"/><ellipse cx="262.16" cy="133.23" rx="16.26" ry="24.28" fill="#fff"/><path d="M262.16,158c-9.24,0-16.76-11.12-16.76-24.78s7.52-24.78,16.76-24.78,16.76,11.12,16.76,24.78S271.4,158,262.16,158Zm0-48.56c-8.69,0-15.76,10.67-15.76,23.78S253.47,157,262.16,157s15.76-10.67,15.76-23.78S270.85,109.45,262.16,109.45Z" fill="#231f20"/><path d="M262.16,150.53c-6.48,0-11.75-7.76-11.75-17.3s5.27-17.29,11.75-17.29,11.75,7.75,11.75,17.29S268.64,150.53,262.16,150.53Zm0-33.59c-5.93,0-10.75,7.31-10.75,16.29s4.82,16.3,10.75,16.3,10.75-7.31,10.75-16.3S268.08,116.94,262.16,116.94Z" fill="#d1d3d4"/><path d="M244.33,133.23a4.9,4.9,0,0,1,.78-2.74v-1.06h16.11c1.41,0,2.55,1.7,2.55,3.8s-1.14,3.8-2.55,3.8H245.11V136A4.85,4.85,0,0,1,244.33,133.23Z" fill="#231f20"/><path d="M261.22,137.53H245.11a.51.51,0,0,1-.5-.5v-.91a5.74,5.74,0,0,1,0-5.78v-.91a.51.51,0,0,1,.5-.5h16.11c1.71,0,3,1.89,3,4.3S262.93,137.53,261.22,137.53Zm-15.61-1h15.61c1.11,0,2-1.51,2-3.3s-.94-3.3-2-3.3H245.61v.56a.48.48,0,0,1-.09.29,4.69,4.69,0,0,0,0,4.9.52.52,0,0,1,.09.29Z" fill="#231f20"/><ellipse cx="245.11" cy="133.23" rx="2.54" ry="3.8" fill="#fff"/><path d="M245.11,137.53c-1.7,0-3-1.89-3-4.3s1.34-4.3,3-4.3,3,1.89,3,4.3S246.82,137.53,245.11,137.53Zm0-7.6c-1.11,0-2,1.51-2,3.3s.93,3.3,2,3.3,2-1.51,2-3.3S246.22,129.93,245.11,129.93Z" fill="#231f20"/><path d="M125.17,218l-2.69,27.59H104.41S102.23,233,100.13,218Z" fill="#d1d3d4"/><path d="M122.48,246.11H104.41a.5.5,0,0,1-.49-.42c0-.12-2.21-12.81-4.28-27.6a.49.49,0,0,1,.49-.57h25a.51.51,0,0,1,.37.16.52.52,0,0,1,.13.39L123,245.66A.51.51,0,0,1,122.48,246.11Zm-17.65-1H122l2.59-26.59H100.71C102.55,231.56,104.45,242.84,104.83,245.11Z" fill="#231f20"/><path d="M298.6,220.27c-2.19,15.15-4.54,30.31-4.54,30.31H273.8l-2.63-30.31Z" fill="#d1d3d4"/><path d="M294.06,251.08H273.8a.51.51,0,0,1-.5-.46l-2.63-30.31a.5.5,0,0,1,.5-.54H298.6a.5.5,0,0,1,.38.17.53.53,0,0,1,.12.4c-2.17,15-4.52,30.16-4.55,30.31A.49.49,0,0,1,294.06,251.08Zm-19.8-1h19.37c.39-2.53,2.45-15.92,4.39-29.31h-26.3Z" fill="#231f20"/></g><deepl-alert xmlns=""/><deepl-alert xmlns=""/><deepl-alert xmlns=""/></svg>